<?xml version="1.0" standalone="no"?><!DOCTYPE svg PUBLIC "-//W3C//DTD SVG 1.1//EN" "http://www.w3.org/Graphics/SVG/1.1/DTD/svg11.dtd"><svg t="1626941466659" class="icon" viewBox="0 0 1024 1024" version="1.1" xmlns="http://www.w3.org/2000/svg" p-id="2714" xmlns:xlink="http://www.w3.org/1999/xlink" width="128" height="128"><defs><style type="text/css">@font-face { font-family: feedback-iconfont; src: url("//at.alicdn.com/t/font_1031158_1uhr8ri0pk5.eot?#iefix") format("embedded-opentype"), url("//at.alicdn.com/t/font_1031158_1uhr8ri0pk5.woff2") format("woff2"), url("//at.alicdn.com/t/font_1031158_1uhr8ri0pk5.woff") format("woff"), url("//at.alicdn.com/t/font_1031158_1uhr8ri0pk5.ttf") format("truetype"), url("//at.alicdn.com/t/font_1031158_1uhr8ri0pk5.svg#iconfont") format("svg"); }
</style></defs><path d="M927.744 345.97888a28.7744 28.7744 0 0 0-28.83584 28.71296v487.87456a32.4352 32.4352 0 0 1-32.46592 32.32768H156.672a32.4352 32.4352 0 0 1-32.46592-32.32768V151.20384a32.4352 32.4352 0 0 1 32.46592-32.3328h464.59904a28.71296 28.71296 0 1 0 0-57.42592H156.672A90.05056 90.05056 0 0 0 66.56 151.20384V862.5664A90.04544 90.04544 0 0 0 156.672 952.32h709.74976a90.04544 90.04544 0 0 0 90.112-89.7536V374.69696a28.7744 28.7744 0 0 0-28.78976-28.71808zM301.80864 675.52768a32.82944 32.82944 0 0 0 31.27296 42.9312 33.13664 33.13664 0 0 0 9.3696-1.35168l162.9184-47.98976 442.79296-440.94976a48.98304 48.98304 0 0 0 0-69.38624l-82.49856-82.1504a49.4848 49.4848 0 0 0-69.67808 0l-442.496 440.65792z m89.6256-88.75008l42.88512 43.38176L371.2 648.7552z m97.85856 17.13664l-70.06208-70.87616L747.2896 206.336l71.62368 69.3248z m341.53472-480.768l70.61504 70.3232-41.7536 41.57952-71.62368-69.31456z" fill="#515151" p-id="2715"></path></svg>